<svg width="18" height="16" viewBox="0 0 18 16" fill="none" xmlns="http://www.w3.org/2000/svg">
<path d="M10.8977 15.1471L17.6477 8.39714C17.7531 8.29167 17.8122 8.1487 17.8122 7.99964C17.8122 7.85058 17.7531 7.70761 17.6477 7.60214L10.8977 0.852141C10.7911 0.752781 10.6501 0.698688 10.5044 0.70126C10.3586 0.703831 10.2196 0.762864 10.1165 0.865924C10.0135 0.968984 9.95443 1.10802 9.95186 1.25375C9.94929 1.39947 10.0034 1.54051 10.1027 1.64714L15.8918 7.43714H0.750244C0.60106 7.43714 0.457986 7.4964 0.352496 7.60189C0.247007 7.70738 0.187744 7.85046 0.187744 7.99964C0.187744 8.14883 0.247007 8.2919 0.352496 8.39739C0.457986 8.50288 0.60106 8.56214 0.750244 8.56214H15.8918L10.1027 14.3521C10.0034 14.4588 9.94929 14.5998 9.95186 14.7455C9.95443 14.8913 10.0135 15.0303 10.1165 15.1334C10.2196 15.2364 10.3586 15.2955 10.5044 15.298C10.6501 15.3006 10.7911 15.2465 10.8977 15.1471Z" fill="black" fill-opacity="0.4"/>
</svg>
