<svg width="48" height="48" viewBox="0 0 48 48" fill="none" xmlns="http://www.w3.org/2000/svg">
<path d="M43.875 17.3531C43.875 17.3531 43.8656 17.3531 43.8581 17.34L24.3581 6.84001C24.2487 6.78093 24.1263 6.75 24.0019 6.75C23.8775 6.75 23.7551 6.78093 23.6456 6.84001L4.14563 17.34L4.125 17.355C4.01165 17.4205 3.91739 17.5144 3.85161 17.6276C3.78582 17.7407 3.75079 17.8691 3.75 18V30C3.75046 30.1312 3.78534 30.26 3.85114 30.3735C3.91694 30.487 4.01137 30.5813 4.125 30.6469C4.13026 30.6517 4.13591 30.6561 4.14188 30.66L23.6419 41.16C23.7513 41.2191 23.8737 41.25 23.9981 41.25C24.1225 41.25 24.2449 41.2191 24.3544 41.16L43.8544 30.66C43.8602 30.6567 43.8653 30.6522 43.8694 30.6469C43.983 30.5813 44.0774 30.487 44.1432 30.3735C44.209 30.26 44.2439 30.1312 44.2444 30V18C44.2445 17.8694 44.2105 17.7409 44.1457 17.6275C44.0809 17.514 43.9876 17.4194 43.875 17.3531ZM42.75 28.7438L33.9375 24L42.75 19.2563V28.7438ZM32.3569 23.1488L24.75 19.0519V8.75626L41.9175 18L32.3569 23.1488ZM24 27.6488L17.2256 24L24 20.3513L30.7744 24L24 27.6488ZM23.25 8.75626V19.0519L15.6431 23.1488L6.0825 18L23.25 8.75626ZM5.25 19.2563L14.0625 24L5.25 28.7438V19.2563ZM15.6431 24.8513L23.25 28.9481V39.2438L6.0825 30L15.6431 24.8513ZM24.75 39.2438V28.9481L32.3569 24.8513L41.9194 30L24.75 39.2438Z" fill="url(#paint0_linear_129_35)"/>
<defs>
<linearGradient id="paint0_linear_129_35" x1="3.75" y1="24" x2="36.5376" y2="24" gradientUnits="userSpaceOnUse">
<stop stop-color="#fff"/>
<stop offset="1" stop-color="#fff"/>
</linearGradient>
</defs>
</svg>
