<svg width="25" height="18" viewBox="0 0 25 18" fill="none" xmlns="http://www.w3.org/2000/svg">
<path d="M24.5302 1.52948L8.53018 17.5295C8.38956 17.6699 8.19893 17.7488 8.00018 17.7488C7.80143 17.7488 7.61081 17.6699 7.47018 17.5295L0.470182 10.5295C0.337702 10.3873 0.265579 10.1993 0.269007 10.005C0.272435 9.81066 0.351147 9.62527 0.48856 9.48786C0.625973 9.35045 0.811358 9.27174 1.00566 9.26831C1.19996 9.26488 1.38801 9.337 1.53018 9.46948L8.00018 15.9382L23.4702 0.469481C23.6124 0.337001 23.8004 0.264877 23.9947 0.268305C24.189 0.271734 24.3744 0.350446 24.5118 0.487859C24.6492 0.625272 24.7279 0.810658 24.7314 1.00496C24.7348 1.19926 24.6627 1.38731 24.5302 1.52948Z" fill="#1D1D1F"/>
</svg>
