<svg width="18" height="16" viewBox="0 0 18 16" fill="none" xmlns="http://www.w3.org/2000/svg">
<path d="M10.71 15.1474L17.46 8.39739C17.5653 8.29192 17.6245 8.14895 17.6245 7.99988C17.6245 7.85082 17.5653 7.70785 17.46 7.60239L10.71 0.852385C10.6034 0.753025 10.4623 0.698932 10.3166 0.701504C10.1709 0.704075 10.0318 0.763109 9.92878 0.866168C9.82572 0.969228 9.76669 1.10827 9.76412 1.25399C9.76155 1.39972 9.81564 1.54075 9.915 1.64739L15.7041 7.43738H0.5625C0.413316 7.43738 0.270242 7.49665 0.164752 7.60214C0.0592631 7.70763 0 7.8507 0 7.99988C0 8.14907 0.0592631 8.29214 0.164752 8.39763C0.270242 8.50312 0.413316 8.56238 0.5625 8.56238H15.7041L9.915 14.3524C9.81564 14.459 9.76155 14.6001 9.76412 14.7458C9.76669 14.8915 9.82572 15.0305 9.92878 15.1336C10.0318 15.2367 10.1709 15.2957 10.3166 15.2983C10.4623 15.3008 10.6034 15.2467 10.71 15.1474Z" fill="#1261fe"/>
</svg>
