<svg width="32" height="32" viewBox="0 0 32 32" fill="none" xmlns="http://www.w3.org/2000/svg">
<path d="M4.22669 9.91996L16 16.7333L27.6933 9.95992M16 28.8133V16.7199M22.6667 17.6533V12.7733L10.0133 5.46659M13.24 3.30663L6.12 7.26667C4.50666 8.16 3.18669 10.4 3.18669 12.24V19.7733C3.18669 21.6133 4.50666 23.8533 6.12 24.7466L13.24 28.7067C14.76 29.5467 17.2533 29.5467 18.7733 28.7067L25.8934 24.7466C27.5067 23.8533 28.8267 21.6133 28.8267 19.7733V12.24C28.8267 10.4 27.5067 8.16 25.8934 7.26667L18.7733 3.30663C17.24 2.45329 14.76 2.45329 13.24 3.30663Z" stroke="#292D32" stroke-width="1.5" stroke-linecap="round" stroke-linejoin="round"/>
</svg>
