<svg width="30" height="22" viewBox="0 0 30 22" fill="none" xmlns="http://www.w3.org/2000/svg">
<path d="M13.2887 7.7375C13.2258 7.54886 13.2403 7.34295 13.3292 7.16504C13.418 6.98712 13.5739 6.85177 13.7625 6.78875L15.2625 6.28875C15.3752 6.25111 15.4953 6.24081 15.6128 6.25869C15.7303 6.27656 15.8419 6.32211 15.9383 6.39157C16.0348 6.46104 16.1133 6.55243 16.1675 6.65821C16.2217 6.764 16.25 6.88114 16.25 7V12C16.25 12.1989 16.171 12.3897 16.0303 12.5303C15.8897 12.671 15.6989 12.75 15.5 12.75C15.3011 12.75 15.1103 12.671 14.9697 12.5303C14.829 12.3897 14.75 12.1989 14.75 12V8.04L14.2375 8.21125C14.0489 8.2742 13.8429 8.25965 13.665 8.17081C13.4871 8.08197 13.3518 7.92611 13.2887 7.7375ZM29.75 21C29.75 21.1989 29.671 21.3897 29.5303 21.5303C29.3897 21.671 29.1989 21.75 29 21.75H1C0.801088 21.75 0.610322 21.671 0.46967 21.5303C0.329018 21.3897 0.25 21.1989 0.25 21C0.25 20.8011 0.329018 20.6103 0.46967 20.4697C0.610322 20.329 0.801088 20.25 1 20.25H2.25V8C2.25 7.53587 2.43437 7.09075 2.76256 6.76256C3.09075 6.43437 3.53587 6.25 4 6.25H9.25V2C9.25 1.53587 9.43437 1.09075 9.76256 0.762563C10.0908 0.434375 10.5359 0.25 11 0.25H19C19.4641 0.25 19.9092 0.434375 20.2374 0.762563C20.5656 1.09075 20.75 1.53587 20.75 2V11.25H26C26.4641 11.25 26.9092 11.4344 27.2374 11.7626C27.5656 12.0908 27.75 12.5359 27.75 13V20.25H29C29.1989 20.25 29.3897 20.329 29.5303 20.4697C29.671 20.6103 29.75 20.8011 29.75 21ZM20.75 12.75V20.25H26.25V13C26.25 12.9337 26.2237 12.8701 26.1768 12.8232C26.1299 12.7763 26.0663 12.75 26 12.75H20.75ZM10.75 20.25H19.25V2C19.25 1.9337 19.2237 1.87011 19.1768 1.82322C19.1299 1.77634 19.0663 1.75 19 1.75H11C10.9337 1.75 10.8701 1.77634 10.8232 1.82322C10.7763 1.87011 10.75 1.9337 10.75 2V20.25ZM3.75 20.25H9.25V7.75H4C3.9337 7.75 3.87011 7.77634 3.82322 7.82322C3.77634 7.87011 3.75 7.9337 3.75 8V20.25Z" fill="black"/>
</svg>
