<svg width="32" height="32" viewBox="0 0 32 32" fill="none" xmlns="http://www.w3.org/2000/svg">
<path d="M10.6667 3.99996H12C9.40002 11.7866 9.40002 20.2133 12 28H10.6667M20 3.99996C22.6 11.7866 22.6 20.2133 20 28M4.00002 21.3333V20C11.7867 22.6 20.2134 22.6 28 20V21.3333M4.00002 12C11.7867 9.39996 20.2134 9.39996 28 12M29.3334 16C29.3334 23.3638 23.3638 29.3333 16 29.3333C8.63622 29.3333 2.66669 23.3638 2.66669 16C2.66669 8.63616 8.63622 2.66663 16 2.66663C23.3638 2.66663 29.3334 8.63616 29.3334 16Z" stroke="#292D32" stroke-width="1.5" stroke-linecap="round" stroke-linejoin="round"/>
</svg>
