<svg width="32" height="32" viewBox="0 0 32 32" fill="none" xmlns="http://www.w3.org/2000/svg">
<path d="M10.6665 3.99996H11.9998C9.39984 11.7866 9.39984 20.2133 11.9998 28H10.6665M19.9998 3.99996C22.5998 11.7866 22.5998 20.2133 19.9998 28M3.99984 21.3333V20C11.7865 22.6 20.2132 22.6 27.9998 20V21.3333M3.99984 12C11.7865 9.39996 20.2132 9.39996 27.9998 12M29.3332 16C29.3332 23.3638 23.3636 29.3333 15.9998 29.3333C8.63604 29.3333 2.6665 23.3638 2.6665 16C2.6665 8.63616 8.63604 2.66663 15.9998 2.66663C23.3636 2.66663 29.3332 8.63616 29.3332 16Z" stroke="white" stroke-width="1.5" stroke-linecap="round" stroke-linejoin="round"/>
</svg>
