<svg width="32" height="32" viewBox="0 0 32 32" fill="none" xmlns="http://www.w3.org/2000/svg">
<path d="M12 20L20 12M19.326 19.3334H19.338M12.6593 12.6667H12.6713M5.31853 19.5473L3.29188 17.5206C2.46521 16.6939 2.46521 15.3339 3.29188 14.5072L5.31853 12.4806C5.66519 12.1339 5.9452 11.4539 5.9452 10.9739V8.10718C5.9452 6.93385 6.9052 5.97388 8.07854 5.97388H10.9452C11.4252 5.97388 12.1052 5.69392 12.4519 5.34725L14.4785 3.32056C15.3052 2.49389 16.6652 2.49389 17.4919 3.32056L19.5186 5.34725C19.8652 5.69392 20.5452 5.97388 21.0252 5.97388H23.8919C25.0652 5.97388 26.0252 6.93385 26.0252 8.10718V10.9739C26.0252 11.4539 26.3052 12.1339 26.6519 12.4806L28.6786 14.5072C29.5052 15.3339 29.5052 16.6939 28.6786 17.5206L26.6519 19.5473C26.3052 19.894 26.0252 20.574 26.0252 21.054V23.9205C26.0252 25.0938 25.0652 26.054 23.8919 26.054H21.0252C20.5452 26.054 19.8652 26.3339 19.5186 26.6806L17.4919 28.7073C16.6652 29.5339 15.3052 29.5339 14.4785 28.7073L12.4519 26.6806C12.1052 26.3339 11.4252 26.054 10.9452 26.054H8.07854C6.9052 26.054 5.9452 25.0938 5.9452 23.9205V21.054C5.9452 20.5606 5.66519 19.8806 5.31853 19.5473Z" stroke="#292D32" stroke-width="1.5" stroke-linecap="round" stroke-linejoin="round"/>
</svg>
