<svg width="48" height="48" viewBox="0 0 48 48" fill="none" xmlns="http://www.w3.org/2000/svg">
<path d="M42.4163 17.3756L24.4163 5.37562C24.293 5.29339 24.1482 5.24951 24 5.24951C23.8518 5.24951 23.707 5.29339 23.5837 5.37562L5.58375 17.3756C5.48101 17.4442 5.39679 17.537 5.33857 17.646C5.28034 17.7549 5.24992 17.8765 5.25 18V37.5C5.25 38.0967 5.48705 38.669 5.90901 39.091C6.33097 39.5129 6.90326 39.75 7.5 39.75H40.5C41.0967 39.75 41.669 39.5129 42.091 39.091C42.5129 38.669 42.75 38.0967 42.75 37.5V18C42.7501 17.8765 42.7197 17.7549 42.6614 17.646C42.6032 17.537 42.519 17.4442 42.4163 17.3756ZM19.4306 28.5L6.75 37.455V19.455L19.4306 28.5ZM20.9662 29.25H27.0337L39.7837 38.25H8.22375L20.9662 29.25ZM28.5694 28.5L41.25 19.455V37.455L28.5694 28.5ZM24 6.90187L40.6875 18.0206L27.0319 27.75H20.9681L7.32188 18.0206L24 6.90187Z" fill="url(#paint0_linear_241_1587)"/>
<defs>
<linearGradient id="paint0_linear_241_1587" x1="5.25" y1="22.4998" x2="35.6131" y2="22.4998" gradientUnits="userSpaceOnUse">
<stop stop-color="#2D64F4"/>
<stop offset="1" stop-color="#AE60AE"/>
</linearGradient>
</defs>
</svg>
