<svg width="77" height="40" viewBox="0 0 77 40" fill="none" xmlns="http://www.w3.org/2000/svg">
<path d="M0 8C0 3.58172 3.58172 0 8 0H69C73.4183 0 77 3.58172 77 8V32C77 36.4183 73.4183 40 69 40H8C3.58172 40 0 36.4183 0 32V8Z" fill="white"/>
<path d="M0.5 8C0.5 3.85786 3.85786 0.5 8 0.5H69C73.1421 0.5 76.5 3.85786 76.5 8V32C76.5 36.1421 73.1421 39.5 69 39.5H8C3.85786 39.5 0.5 36.1421 0.5 32V8Z" stroke="#A4A29F" stroke-opacity="0.5"/>
<g clip-path="url(#clip0_114_702)">
<path d="M28 29C32.9706 29 37 24.9706 37 20C37 15.0294 32.9706 11 28 11C23.0294 11 19 15.0294 19 20C19 24.9706 23.0294 29 28 29Z" stroke="#1D1D1F" stroke-width="1.5" stroke-linecap="round" stroke-linejoin="round"/>
<path d="M24.25 20.0001C24.25 23.512 25.4997 26.6489 27.4637 28.7648C27.532 28.839 27.6149 28.8983 27.7072 28.9388C27.7995 28.9793 27.8992 29.0002 28 29.0002C28.1008 29.0002 28.2005 28.9793 28.2928 28.9388C28.3851 28.8983 28.468 28.839 28.5363 28.7648C30.5003 26.6489 31.75 23.512 31.75 20.0001C31.75 16.4882 30.5003 13.3514 28.5363 11.2354C28.468 11.1612 28.3851 11.102 28.2928 11.0614C28.2005 11.0209 28.1008 11 28 11C27.8992 11 27.7995 11.0209 27.7072 11.0614C27.6149 11.102 27.532 11.1612 27.4637 11.2354C25.4997 13.3514 24.25 16.4882 24.25 20.0001Z" stroke="#1D1D1F" stroke-width="1.5" stroke-linecap="round" stroke-linejoin="round"/>
<path d="M19 20H37" stroke="#1D1D1F" stroke-width="1.5" stroke-linecap="round" stroke-linejoin="round"/>
</g>
<path d="M45.1186 25.5V15.3182H51.5021V16.6406H46.6548V19.7429H51.169V21.0604H46.6548V24.1776H51.5618V25.5H45.1186ZM54.9213 20.9659V25.5H53.4348V17.8636H54.8617V19.1065H54.9561C55.1318 18.7022 55.4069 18.3774 55.7814 18.1321C56.1593 17.8868 56.6349 17.7642 57.2083 17.7642C57.7286 17.7642 58.1844 17.8736 58.5755 18.0923C58.9666 18.3078 59.2698 18.6293 59.4853 19.0568C59.7007 19.4844 59.8084 20.013 59.8084 20.6428V25.5H58.3219V20.8217C58.3219 20.2682 58.1777 19.8357 57.8894 19.5241C57.601 19.2093 57.205 19.0518 56.7012 19.0518C56.3565 19.0518 56.0499 19.1264 55.7814 19.2756C55.5163 19.4247 55.3058 19.6435 55.15 19.9318C54.9976 20.2169 54.9213 20.5616 54.9213 20.9659Z" fill="#1D1D1F"/>
<defs>
<clipPath id="clip0_114_702">
<rect width="24" height="24" fill="white" transform="translate(16 8)"/>
</clipPath>
</defs>
</svg>
