<svg width="187" height="44" viewBox="0 0 187 44" fill="none" xmlns="http://www.w3.org/2000/svg">
<path fill-rule="evenodd" clip-rule="evenodd" d="M45.7708 20.2982C45.9471 20.6312 45.7057 21.0321 45.3289 21.0321H44.0596C43.5498 21.0321 43.3669 20.3586 43.8067 20.1008L44.7754 19.5329C45.021 19.389 45.337 19.4788 45.4702 19.7303L45.7708 20.2982ZM44.1279 17.4062C44.2914 17.6466 44.2161 17.9753 43.9643 18.1205L40.0324 20.3878C39.8336 20.5024 39.584 20.4647 39.4114 20.3135C39.2344 20.1584 39.0558 20.0253 38.8828 19.9121C38.4979 19.6601 38.4287 18.9408 38.8259 18.7089L42.8521 16.3582C43.0791 16.2256 43.3699 16.2915 43.5177 16.5088L44.1279 17.4062ZM34.79 19.1306C34.8771 19.1306 34.9627 19.1079 35.0383 19.0646L42.169 14.9853C42.4068 14.8493 42.4908 14.5471 42.3574 14.3078L41.8408 13.3815C41.7057 13.1392 41.3991 13.0533 41.1577 13.19L32.321 18.1956C31.874 18.4488 32.0538 19.1306 32.5675 19.1306H34.79ZM40.5055 11.0878C40.6486 11.3278 40.5672 11.6385 40.3247 11.7775L28.6088 18.4955C28.4167 18.6057 28.1749 18.5763 28.0147 18.4233L27.2118 17.6561C26.9706 17.4255 27.0185 17.0279 27.3077 16.8613L39.2673 9.97258C39.504 9.83622 39.8064 9.91514 39.9463 10.1498L40.5055 11.0878ZM25.317 15.776C25.4765 15.9393 25.7264 15.9738 25.9242 15.8598L38.516 8.60406C38.7625 8.46201 38.841 8.14316 38.6885 7.90293L38.085 6.95191C37.941 6.72507 37.6435 6.65254 37.4113 6.78765L24.656 14.2095C24.3745 14.3733 24.3223 14.7582 24.5499 14.9911L25.317 15.776ZM22.6212 13.0866C22.7807 13.2461 23.0272 13.279 23.223 13.1671L36.6663 5.4805C36.9063 5.34327 36.9894 5.03729 36.8518 4.79751L36.2783 3.79855C36.1408 3.55906 35.8352 3.47637 35.5957 3.61386L21.902 11.4756C21.6165 11.6396 21.5646 12.03 21.7974 12.2628L22.6212 13.0866ZM35.0019 1.61203C35.148 1.85272 35.0667 2.16655 34.822 2.30595L20.4836 10.4759C20.2916 10.5853 20.0505 10.5557 19.8907 10.403L19.0837 9.63182C18.8434 9.40225 18.8898 9.00654 19.1766 8.83875L32.3167 1.15181C32.3933 1.107 32.4804 1.08339 32.5692 1.08339H34.3996C34.5743 1.08339 34.7363 1.17457 34.827 1.3239L35.0019 1.61203ZM17.2262 7.73245C17.3867 7.88952 17.6322 7.92033 17.8266 7.80777L27.8847 1.98156C28.3271 1.72534 28.1453 1.0489 27.6341 1.0489H25.3069C25.2193 1.0489 25.1332 1.07193 25.0573 1.11568L16.4442 6.07857C16.1573 6.24391 16.1075 6.63749 16.3441 6.86913L17.2262 7.73245ZM14.4952 5.08707C14.6544 5.2534 14.9067 5.28946 15.1061 5.17442L20.5818 2.01634C21.0251 1.7607 20.8437 1.08321 20.332 1.08321H17.8421C17.7525 1.08321 17.6645 1.10732 17.5873 1.15301L13.7526 3.42438C13.4755 3.58847 13.4235 3.9678 13.6462 4.20037L14.4952 5.08707ZM11.7891 2.46763C11.9538 2.6291 12.2075 2.65703 12.4033 2.53524L13.4181 1.90407C13.8452 1.63846 13.657 0.979492 13.1541 0.979492H11.4957C11.0479 0.979492 10.8259 1.52291 11.1456 1.83646L11.7891 2.46763ZM17.2306 17.8104C17.0927 17.7708 16.9785 17.6738 16.917 17.5441L10.1269 3.22383C9.95426 2.85962 9.4437 2.83897 9.24215 3.18804L0.102431 19.0177C-0.0925823 19.3554 0.156976 19.7765 0.546885 19.7675L19.0285 19.3443C19.6009 19.3312 19.7055 18.5222 19.1552 18.3639L17.2306 17.8104ZM17.196 26.1906C17.0581 26.2303 16.9439 26.3273 16.8824 26.4569L10.0923 40.7772C9.91962 41.1414 9.40906 41.1621 9.20752 40.813L0.0677944 24.9834C-0.127219 24.6456 0.12234 24.2246 0.512248 24.2335L18.9938 24.6567C19.5663 24.6699 19.6709 25.4789 19.1206 25.6371L17.196 26.1906ZM43.8067 23.8997C43.3669 23.6419 43.5498 22.9684 44.0596 22.9684H45.3289C45.7057 22.9684 45.9471 23.3693 45.7708 23.7023L45.4702 24.2702C45.337 24.5217 45.021 24.6115 44.7754 24.4676L43.8067 23.8997ZM39.4114 23.687C39.584 23.5358 39.8336 23.4981 40.0324 23.6127L43.9643 25.88C44.2161 26.0252 44.2914 26.3539 44.1279 26.5943L43.5177 27.4917C43.3699 27.709 43.0791 27.7748 42.8521 27.6423L38.8259 25.2916C38.4287 25.0597 38.4979 24.3403 38.8828 24.0884C39.0558 23.9752 39.2344 23.8421 39.4114 23.687ZM42.3574 29.6927C42.4908 29.4534 42.4068 29.1512 42.169 29.0151L35.0383 24.9359C34.9627 24.8926 34.8771 24.8699 34.79 24.8699H32.5675C32.0537 24.8699 31.874 25.5517 32.321 25.8049L41.1577 30.8105C41.3991 30.9472 41.7057 30.8613 41.8408 30.619L42.3574 29.6927ZM28.0147 25.5778C28.1749 25.4247 28.4167 25.3953 28.6088 25.5055L40.3247 32.2235C40.5672 32.3625 40.6486 32.6733 40.5055 32.9133L39.9463 33.8512C39.8064 34.0859 39.504 34.1648 39.2673 34.0285L27.3077 27.1397C27.0185 26.9732 26.9706 26.5755 27.2118 26.345L28.0147 25.5778ZM38.6885 36.0976C38.841 35.8573 38.7625 35.5385 38.516 35.3964L25.9242 28.1407C25.7264 28.0267 25.4765 28.0612 25.317 28.2245L24.5499 29.0093C24.3223 29.2423 24.3745 29.6272 24.656 29.791L37.4113 37.2128C37.6435 37.3479 37.941 37.2754 38.085 37.0486L38.6885 36.0976ZM36.8518 39.203C36.9894 38.9632 36.9063 38.6572 36.6663 38.52L23.223 30.8334C23.0272 30.7214 22.7807 30.7544 22.6212 30.9139L21.7974 31.7377C21.5646 31.9705 21.6165 32.3609 21.902 32.5248L35.5957 40.3866C35.8352 40.5241 36.1408 40.4414 36.2783 40.2019L36.8518 39.203ZM19.8907 33.5981C20.0505 33.4454 20.2916 33.4157 20.4836 33.5252L34.822 41.6951C35.0667 41.8345 35.148 42.1483 35.0019 42.389L34.827 42.6772C34.7363 42.8265 34.5743 42.9177 34.3996 42.9177H32.5692C32.4804 42.9177 32.3933 42.894 32.3167 42.8492L19.1766 35.1623C18.8898 34.9945 18.8434 34.5988 19.0837 34.3692L19.8907 33.5981ZM27.6341 42.9521C28.1453 42.9521 28.3271 42.2757 27.8847 42.0195L17.8266 36.1933C17.6322 36.0807 17.3867 36.1115 17.2262 36.2686L16.3441 37.1319C16.1075 37.3636 16.1573 37.7571 16.4442 37.9225L25.0573 42.8854C25.1332 42.9291 25.2193 42.9521 25.3069 42.9521H27.6341ZM20.332 42.9173C20.8437 42.9173 21.0251 42.2398 20.5818 41.9841L15.1061 38.8261C14.9067 38.711 14.6544 38.7471 14.4952 38.9134L13.6462 39.8001C13.4235 40.0327 13.4755 40.412 13.7526 40.5761L17.5873 42.8475C17.6645 42.8932 17.7525 42.9173 17.8421 42.9173H20.332ZM13.1541 43.021C13.657 43.021 13.8452 42.362 13.4181 42.0964L12.4033 41.4653C12.2075 41.3435 11.9538 41.3714 11.7891 41.5329L11.1456 42.164C10.8259 42.4776 11.0479 43.021 11.4957 43.021H13.1541ZM37.4415 20.6176C37.1531 20.6176 36.9321 20.8741 36.9749 21.1594L37.0782 21.8476C37.0934 21.949 37.093 22.0521 37.077 22.1533L36.9799 22.7684C36.9346 23.055 37.1562 23.3143 37.4464 23.3143C37.6525 23.3143 37.8348 23.1808 37.8968 22.9843L38.0847 22.3892C38.1647 22.136 38.1666 21.8645 38.0903 21.6102L37.8934 20.9538C37.8336 20.7543 37.6499 20.6176 37.4415 20.6176Z" fill="url(#paint0_linear_173_193)"/>
<path d="M52.9016 16V4.8H57.6856C58.4643 4.8 59.1203 4.92267 59.6536 5.168C60.1869 5.40267 60.5923 5.73867 60.8696 6.176C61.1576 6.60267 61.3016 7.10933 61.3016 7.696C61.3016 8.26133 61.1789 8.736 60.9336 9.12C60.6883 9.504 60.3629 9.79733 59.9576 10C59.5629 10.2027 59.1256 10.3253 58.6456 10.368L58.9016 10.176C59.4243 10.1973 59.8829 10.336 60.2776 10.592C60.6723 10.848 60.9816 11.184 61.2056 11.6C61.4403 12.0053 61.5576 12.4533 61.5576 12.944C61.5576 13.552 61.4136 14.0853 61.1256 14.544C60.8376 15.0027 60.4163 15.36 59.8616 15.616C59.3069 15.872 58.6349 16 57.8456 16H52.9016ZM55.3016 14.048H57.4456C57.9789 14.048 58.3896 13.9307 58.6776 13.696C58.9763 13.4507 59.1256 13.0987 59.1256 12.64C59.1256 12.1813 58.9709 11.824 58.6616 11.568C58.3629 11.312 57.9469 11.184 57.4136 11.184H55.3016V14.048ZM55.3016 9.408H57.2696C57.7816 9.408 58.1709 9.29067 58.4376 9.056C58.7149 8.82133 58.8536 8.49067 58.8536 8.064C58.8536 7.63733 58.7149 7.30667 58.4376 7.072C58.1709 6.82667 57.7763 6.704 57.2536 6.704H55.3016V9.408ZM66.7362 16V12.16L62.9122 4.8H65.6322L68.1762 10.176H67.7282L70.2562 4.8H72.9442L69.1362 12.16V16H66.7362ZM77.8061 16V6.736H74.5581V4.8H83.4541V6.736H80.2061V16H77.8061ZM85.9485 16V4.8H93.4525V6.736H88.3485V9.376H92.9725V11.232H88.3485V14.064H93.4525V16H85.9485ZM103.379 16V4.8H105.779V16H103.379ZM96.3547 16V4.8H98.7547V16H96.3547ZM98.4507 11.248V9.312H103.763V11.248H98.4507ZM108.165 16L112.245 4.8H114.997L119.077 16H116.533L113.605 7.504L110.677 16H108.165ZM109.941 13.552L110.581 11.696H116.453L117.077 13.552H109.941ZM125.412 16.192C124.569 16.192 123.801 16.0267 123.108 15.696C122.425 15.3547 121.881 14.848 121.476 14.176C121.081 13.504 120.884 12.656 120.884 11.632V4.8H123.284V11.648C123.284 12.1493 123.364 12.576 123.524 12.928C123.694 13.28 123.94 13.5467 124.26 13.728C124.59 13.8987 124.985 13.984 125.444 13.984C125.913 13.984 126.308 13.8987 126.628 13.728C126.958 13.5467 127.209 13.28 127.38 12.928C127.55 12.576 127.636 12.1493 127.636 11.648V4.8H130.036V11.632C130.036 12.656 129.822 13.504 129.396 14.176C128.98 14.848 128.42 15.3547 127.716 15.696C127.022 16.0267 126.254 16.192 125.412 16.192ZM133.073 16V4.8H135.473V14.144H140.305V16H133.073ZM55.4936 38V28.736H52.2456V26.8H61.1416V28.736H57.8936V38H55.4936ZM63.636 38V26.8H71.14V28.736H66.036V31.376H70.66V33.232H66.036V36.064H71.14V38H63.636ZM79.1142 38.192C77.9942 38.192 77.0289 37.952 76.2182 37.472C75.4075 36.9813 74.7835 36.304 74.3462 35.44C73.9089 34.5653 73.6902 33.5627 73.6902 32.432C73.6902 31.28 73.9089 30.272 74.3462 29.408C74.7835 28.5333 75.4075 27.8507 76.2182 27.36C77.0289 26.8587 77.9942 26.608 79.1142 26.608C80.5009 26.608 81.6315 26.9547 82.5062 27.648C83.3915 28.3413 83.9409 29.3173 84.1542 30.576H81.5302C81.4022 30.0107 81.1302 29.5733 80.7142 29.264C80.2982 28.944 79.7595 28.784 79.0982 28.784C78.4689 28.784 77.9302 28.9333 77.4822 29.232C77.0449 29.5307 76.7089 29.952 76.4742 30.496C76.2502 31.0293 76.1382 31.6747 76.1382 32.432C76.1382 33.168 76.2502 33.808 76.4742 34.352C76.7089 34.8853 77.0449 35.3013 77.4822 35.6C77.9302 35.888 78.4689 36.032 79.0982 36.032C79.7595 36.032 80.2929 35.8933 80.6982 35.616C81.1142 35.328 81.3915 34.9173 81.5302 34.384H84.1542C83.9409 35.568 83.3915 36.5013 82.5062 37.184C81.6315 37.856 80.5009 38.192 79.1142 38.192ZM93.9725 38V26.8H96.3725V38H93.9725ZM86.9485 38V26.8H89.3485V38H86.9485ZM89.0445 33.248V31.312H94.3565V33.248H89.0445ZM99.511 38V26.8H101.911L106.823 34.16V26.8H109.223V38H106.823L101.911 30.672V38H99.511ZM117.586 38.192C116.488 38.192 115.522 37.9467 114.69 37.456C113.858 36.9653 113.202 36.288 112.722 35.424C112.253 34.5493 112.018 33.5413 112.018 32.4C112.018 31.2587 112.253 30.256 112.722 29.392C113.202 28.5173 113.858 27.8347 114.69 27.344C115.522 26.8533 116.488 26.608 117.586 26.608C118.685 26.608 119.656 26.8533 120.498 27.344C121.341 27.8347 121.992 28.5173 122.45 29.392C122.92 30.256 123.154 31.2587 123.154 32.4C123.154 33.5413 122.92 34.5493 122.45 35.424C121.992 36.288 121.341 36.9653 120.498 37.456C119.656 37.9467 118.685 38.192 117.586 38.192ZM117.586 36.032C118.237 36.032 118.792 35.8827 119.25 35.584C119.72 35.2853 120.082 34.8693 120.338 34.336C120.594 33.792 120.722 33.1467 120.722 32.4C120.722 31.6533 120.594 31.0133 120.338 30.48C120.082 29.936 119.72 29.52 119.25 29.232C118.792 28.9333 118.237 28.784 117.586 28.784C116.957 28.784 116.408 28.9333 115.938 29.232C115.469 29.52 115.106 29.936 114.85 30.48C114.594 31.0133 114.466 31.6533 114.466 32.4C114.466 33.1467 114.594 33.792 114.85 34.336C115.106 34.8693 115.469 35.2853 115.938 35.584C116.408 35.8827 116.957 36.032 117.586 36.032ZM125.948 38V26.8H128.348V36.144H133.18V38H125.948ZM140.274 38.192C139.175 38.192 138.21 37.9467 137.378 37.456C136.546 36.9653 135.89 36.288 135.41 35.424C134.941 34.5493 134.706 33.5413 134.706 32.4C134.706 31.2587 134.941 30.256 135.41 29.392C135.89 28.5173 136.546 27.8347 137.378 27.344C138.21 26.8533 139.175 26.608 140.274 26.608C141.373 26.608 142.343 26.8533 143.186 27.344C144.029 27.8347 144.679 28.5173 145.138 29.392C145.607 30.256 145.842 31.2587 145.842 32.4C145.842 33.5413 145.607 34.5493 145.138 35.424C144.679 36.288 144.029 36.9653 143.186 37.456C142.343 37.9467 141.373 38.192 140.274 38.192ZM140.274 36.032C140.925 36.032 141.479 35.8827 141.938 35.584C142.407 35.2853 142.77 34.8693 143.026 34.336C143.282 33.792 143.41 33.1467 143.41 32.4C143.41 31.6533 143.282 31.0133 143.026 30.48C142.77 29.936 142.407 29.52 141.938 29.232C141.479 28.9333 140.925 28.784 140.274 28.784C139.645 28.784 139.095 28.9333 138.626 29.232C138.157 29.52 137.794 29.936 137.538 30.48C137.282 31.0133 137.154 31.6533 137.154 32.4C137.154 33.1467 137.282 33.792 137.538 34.336C137.794 34.8693 138.157 35.2853 138.626 35.584C139.095 35.8827 139.645 36.032 140.274 36.032ZM153.58 38.192C152.513 38.192 151.58 37.9573 150.78 37.488C149.991 37.008 149.377 36.3413 148.94 35.488C148.503 34.6347 148.284 33.6373 148.284 32.496C148.284 31.344 148.508 30.3253 148.956 29.44C149.415 28.5547 150.071 27.8613 150.924 27.36C151.777 26.8587 152.796 26.608 153.98 26.608C155.313 26.608 156.417 26.928 157.292 27.568C158.177 28.208 158.748 29.0933 159.004 30.224H156.332C156.172 29.776 155.889 29.4293 155.484 29.184C155.089 28.9387 154.583 28.816 153.964 28.816C153.26 28.816 152.668 28.9707 152.188 29.28C151.708 29.5787 151.345 30.0053 151.1 30.56C150.855 31.104 150.732 31.7493 150.732 32.496C150.732 33.264 150.855 33.9147 151.1 34.448C151.345 34.9813 151.703 35.3867 152.172 35.664C152.641 35.9307 153.196 36.064 153.836 36.064C154.753 36.064 155.447 35.824 155.916 35.344C156.396 34.864 156.689 34.2613 156.796 33.536H154.188V31.744H159.196V38H156.988L156.796 36.704C156.572 37.024 156.305 37.296 155.996 37.52C155.697 37.744 155.345 37.9093 154.94 38.016C154.545 38.1333 154.092 38.192 153.58 38.192ZM162.167 38V26.8H164.567V38H162.167ZM167.714 38V26.8H175.218V28.736H170.114V31.376H174.738V33.232H170.114V36.064H175.218V38H167.714ZM182.056 38.192C181.256 38.192 180.531 38.0587 179.88 37.792C179.24 37.5147 178.734 37.1093 178.36 36.576C177.987 36.0427 177.784 35.3867 177.752 34.608H180.312C180.323 34.9173 180.403 35.1893 180.552 35.424C180.702 35.6587 180.904 35.8453 181.16 35.984C181.416 36.112 181.715 36.176 182.056 36.176C182.344 36.176 182.595 36.1333 182.808 36.048C183.032 35.952 183.208 35.8187 183.336 35.648C183.464 35.4667 183.528 35.2427 183.528 34.976C183.528 34.6987 183.454 34.464 183.304 34.272C183.155 34.0693 182.952 33.8987 182.696 33.76C182.44 33.6107 182.142 33.4773 181.8 33.36C181.47 33.232 181.112 33.1093 180.728 32.992C179.843 32.704 179.16 32.3147 178.68 31.824C178.211 31.3333 177.976 30.6773 177.976 29.856C177.976 29.1733 178.142 28.592 178.472 28.112C178.814 27.6213 179.278 27.248 179.864 26.992C180.451 26.736 181.118 26.608 181.864 26.608C182.632 26.608 183.31 26.7413 183.896 27.008C184.483 27.264 184.947 27.6427 185.288 28.144C185.63 28.6347 185.811 29.2213 185.832 29.904H183.256C183.246 29.6693 183.176 29.456 183.048 29.264C182.931 29.072 182.766 28.9173 182.552 28.8C182.35 28.6827 182.11 28.624 181.832 28.624C181.587 28.6133 181.363 28.6507 181.16 28.736C180.968 28.8107 180.808 28.9333 180.68 29.104C180.563 29.264 180.504 29.4667 180.504 29.712C180.504 29.9467 180.563 30.1547 180.68 30.336C180.808 30.5067 180.979 30.656 181.192 30.784C181.416 30.9013 181.672 31.0133 181.96 31.12C182.259 31.2267 182.584 31.3333 182.936 31.44C183.502 31.632 184.019 31.8613 184.488 32.128C184.968 32.384 185.352 32.7253 185.64 33.152C185.939 33.568 186.088 34.1227 186.088 34.816C186.088 35.424 185.928 35.984 185.608 36.496C185.299 37.008 184.846 37.4187 184.248 37.728C183.662 38.0373 182.931 38.192 182.056 38.192Z" fill="#1D1D1F"/>
<defs>
<linearGradient id="paint0_linear_173_193" x1="22.9148" y1="0.979492" x2="22.9148" y2="43.021" gradientUnits="userSpaceOnUse">
<stop stop-color="#264BE2"/>
<stop offset="1" stop-color="#9D73C1"/>
</linearGradient>
</defs>
</svg>
