<svg width="24" height="24" viewBox="0 0 24 24" fill="none" xmlns="http://www.w3.org/2000/svg">
<path d="M21.8439 10.6233L21.3695 11.0321C21.3142 11.0839 21.2489 11.124 21.1777 11.15C21.1065 11.176 21.0307 11.1873 20.955 11.1833C20.8793 11.1792 20.8052 11.16 20.7371 11.1266C20.6691 11.0932 20.6084 11.0463 20.5589 10.9889C20.5094 10.9315 20.472 10.8647 20.449 10.7924C20.426 10.7202 20.4178 10.644 20.4249 10.5685C20.4321 10.4931 20.4544 10.4198 20.4906 10.3532C20.5268 10.2865 20.576 10.2279 20.6355 10.1808L21.1098 9.77205C21.1454 9.74269 21.1709 9.70304 21.183 9.65855C21.1951 9.61406 21.1931 9.56693 21.1773 9.52362C21.1651 9.48084 21.1398 9.44295 21.105 9.41522C21.0703 9.3875 21.0277 9.37131 20.9833 9.36893L20.207 9.30612C20.0578 9.29368 19.9197 9.2225 19.823 9.10822C19.7263 8.99394 19.679 8.84592 19.6914 8.69674C19.7038 8.54756 19.775 8.40942 19.8893 8.31272C20.0036 8.21602 20.1516 8.16868 20.3008 8.18112L21.0761 8.24393C21.3422 8.26274 21.5965 8.36125 21.8058 8.52662C22.0152 8.692 22.1699 8.91658 22.2498 9.17112C22.3339 9.42613 22.3402 9.7004 22.2679 9.95901C22.1957 10.2176 22.048 10.4489 21.8439 10.6233ZM16.3642 14.2636L16.7467 15.878C16.7758 16.0011 16.8456 16.1109 16.9448 16.1895C17.0439 16.2681 17.1667 16.3109 17.2933 16.3111C17.3372 16.3114 17.381 16.306 17.4236 16.2952C17.4955 16.2782 17.5633 16.2472 17.6233 16.204C17.6832 16.1608 17.734 16.1062 17.7729 16.0434C17.8117 15.9805 17.8377 15.9106 17.8496 15.8377C17.8614 15.7647 17.8587 15.6902 17.8417 15.6183L17.538 14.3367L18.3695 13.6196C18.4255 13.5713 18.4714 13.5125 18.5046 13.4465C18.5378 13.3805 18.5577 13.3086 18.5632 13.2349C18.5686 13.1612 18.5595 13.0872 18.5363 13.017C18.5131 12.9468 18.4764 12.8819 18.4281 12.826C18.3798 12.77 18.321 12.7241 18.255 12.6909C18.189 12.6576 18.1171 12.6377 18.0434 12.6323C17.9698 12.6269 17.8957 12.636 17.8255 12.6592C17.7554 12.6823 17.6905 12.7191 17.6345 12.7674L16.5442 13.7049C16.4653 13.7722 16.4066 13.86 16.3745 13.9586C16.3424 14.0572 16.3382 14.1628 16.3623 14.2636H16.3642ZM18.7295 19.3683C18.7144 19.2945 18.6846 19.2245 18.6419 19.1624C18.5992 19.1003 18.5445 19.0475 18.481 19.007C18.4175 18.9665 18.3465 18.9391 18.2722 18.9266C18.1979 18.914 18.1219 18.9165 18.0486 18.9339C17.9753 18.9513 17.9062 18.9832 17.8455 19.0278C17.7848 19.0724 17.7336 19.1288 17.6951 19.1935C17.6566 19.2582 17.6314 19.3301 17.6212 19.4047C17.6109 19.4793 17.6158 19.5553 17.6355 19.628L17.7592 20.1502C17.7714 20.1946 17.7694 20.2418 17.7534 20.285C17.7374 20.3282 17.7083 20.3653 17.6701 20.3911C17.6355 20.4179 17.5935 20.4331 17.5498 20.4348C17.5061 20.4365 17.4629 20.4245 17.4264 20.4005L16.7973 20.0133C16.7344 19.9746 16.6645 19.9486 16.5916 19.9369C16.5186 19.9252 16.4441 19.928 16.3722 19.9451C16.3004 19.9622 16.2326 19.9933 16.1727 20.0366C16.1129 20.0799 16.0621 20.1346 16.0234 20.1975C15.9847 20.2604 15.9588 20.3304 15.9471 20.4033C15.9354 20.4762 15.9381 20.5508 15.9552 20.6226C15.9724 20.6945 16.0034 20.7623 16.0468 20.8221C16.0901 20.882 16.1447 20.9327 16.2076 20.9714L16.8376 21.3586C17.0653 21.4979 17.3291 21.5666 17.5958 21.5559C17.8625 21.5453 18.12 21.4557 18.3358 21.2987C18.5516 21.1416 18.7159 20.924 18.808 20.6735C18.9001 20.4231 18.9159 20.1509 18.8533 19.8914L18.7295 19.3683ZM16.4551 8.99955L14.9889 8.88143C14.8856 8.87304 14.7867 8.8363 14.703 8.77526C14.6193 8.71422 14.5541 8.63125 14.5145 8.53549L12.5626 3.81518V17.4089L13.3492 17.8917C13.4122 17.9305 13.4669 17.9812 13.5103 18.0411C13.5536 18.1009 13.5848 18.1688 13.6019 18.2407C13.6191 18.3126 13.6219 18.3872 13.6102 18.4602C13.5985 18.5332 13.5726 18.6031 13.5339 18.6661C13.4952 18.7291 13.4444 18.7838 13.3846 18.8272C13.3247 18.8705 13.2569 18.9017 13.185 18.9188C13.113 18.936 13.0385 18.9388 12.9655 18.9271C12.8925 18.9155 12.8225 18.8895 12.7595 18.8508L12.0001 18.3821L7.16452 21.3586C6.93687 21.4979 6.67302 21.5666 6.40634 21.5559C6.13966 21.5453 5.88214 21.4557 5.66636 21.2987C5.45058 21.1416 5.28624 20.924 5.19413 20.6735C5.10202 20.4231 5.08627 20.1509 5.14889 19.8914L6.46139 14.3367L2.15639 10.6233C1.95346 10.4488 1.80684 10.2181 1.73508 9.96024C1.66332 9.70242 1.66965 9.4291 1.75327 9.17487C1.83362 8.9204 1.98874 8.69602 2.19843 8.53098C2.40813 8.36593 2.66267 8.26787 2.92889 8.24955L8.57733 7.79299L10.7542 2.52424C10.8558 2.27728 11.0284 2.06607 11.2503 1.91744C11.4721 1.76881 11.7331 1.68945 12.0001 1.68945C12.2672 1.68945 12.5282 1.76881 12.75 1.91744C12.9718 2.06607 13.1445 2.27728 13.2461 2.52424L15.423 7.79299L16.548 7.88674C16.6971 7.89917 16.8353 7.97036 16.932 8.08464C17.0287 8.19892 17.076 8.34693 17.0636 8.49612C17.0511 8.6453 16.98 8.78344 16.8657 8.88013C16.7514 8.97683 16.6034 9.02417 16.4542 9.01174L16.4551 8.99955ZM11.4376 17.4108V3.81518L9.48576 8.53924C9.44622 8.63499 9.381 8.71797 9.29729 8.77901C9.21359 8.84005 9.11465 8.87679 9.01139 8.88518L3.01889 9.36893C2.97447 9.37131 2.9319 9.3875 2.89711 9.41522C2.86232 9.44295 2.83706 9.48084 2.82483 9.52362C2.80904 9.56693 2.80705 9.61406 2.81913 9.65855C2.83122 9.70304 2.85679 9.74269 2.89233 9.77205L7.45795 13.7096C7.53584 13.7768 7.5938 13.864 7.62554 13.9619C7.65727 14.0597 7.66157 14.1644 7.63795 14.2646L6.24295 20.1502C6.2312 20.1951 6.23393 20.2426 6.25077 20.2858C6.26761 20.3291 6.29768 20.366 6.3367 20.3911C6.3713 20.4179 6.41338 20.4331 6.45708 20.4348C6.50077 20.4365 6.54391 20.4245 6.58045 20.4005L11.4376 17.4108Z" fill="black" fill-opacity="0.4"/>
</svg>
