<svg width="48" height="48" viewBox="0 0 48 48" fill="none" xmlns="http://www.w3.org/2000/svg">
<path d="M27.7763 8.81256C27.8261 8.62061 27.95 8.45622 28.1208 8.35537C28.2916 8.25452 28.4953 8.22542 28.6875 8.27444C31.3428 8.96602 33.7654 10.3536 35.7055 12.2939C37.6455 14.2343 39.0326 16.6572 39.7238 19.3126C39.7747 19.5045 39.7475 19.7088 39.648 19.8807C39.5485 20.0526 39.385 20.178 39.1931 20.2294C39.1322 20.2468 39.0691 20.2557 39.0056 20.2557C38.8398 20.2551 38.6788 20.1996 38.5478 20.0979C38.4169 19.9961 38.3234 19.8538 38.2819 19.6932C37.6562 17.2953 36.4027 15.1076 34.6504 13.3553C32.8981 11.603 30.7104 10.3495 28.3125 9.72381C28.1209 9.67353 27.957 9.54948 27.8565 9.37876C27.756 9.20803 27.7272 9.00448 27.7763 8.81256ZM26.8125 15.7238C29.625 16.4794 31.5206 18.3751 32.2763 21.1876C32.3177 21.3482 32.4113 21.4905 32.5422 21.5922C32.6732 21.694 32.8342 21.7495 33 21.7501C33.0634 21.75 33.1265 21.7412 33.1875 21.7238C33.3793 21.6724 33.5429 21.547 33.6424 21.3751C33.7419 21.2032 33.7691 20.9989 33.7181 20.8069C32.8181 17.4319 30.5588 15.1819 27.1875 14.2744C27.0001 14.2382 26.806 14.2748 26.6447 14.3767C26.4833 14.4786 26.3668 14.6382 26.319 14.8229C26.2712 15.0077 26.2957 15.2037 26.3874 15.3711C26.479 15.5385 26.6311 15.6646 26.8125 15.7238ZM41.2388 34.2338C40.9275 36.5943 39.7673 38.7607 37.975 40.3281C36.1827 41.8954 33.881 42.7564 31.5 42.7501C17.025 42.7501 5.25002 30.9751 5.25002 16.5001C5.24509 14.1201 6.10669 11.8197 7.67389 10.0286C9.24109 8.23743 11.4067 7.07804 13.7663 6.76694C14.2497 6.70817 14.7391 6.80781 15.161 7.0509C15.583 7.29399 15.9146 7.6674 16.1063 8.11506L20.0625 16.9538C20.2104 17.2965 20.2707 17.6707 20.238 18.0425C20.2052 18.4143 20.0805 18.7722 19.875 19.0838C19.8581 19.1082 19.8413 19.1326 19.8225 19.1551L15.8475 23.8819C15.7851 23.9855 15.7494 24.1029 15.7435 24.2236C15.7376 24.3444 15.7618 24.4647 15.8138 24.5738C17.2838 27.5832 20.4356 30.7107 23.4806 32.1807C23.5906 32.2317 23.7114 32.2548 23.8325 32.2479C23.9535 32.241 24.0709 32.2044 24.1744 32.1413L28.8375 28.1813L28.9088 28.1269C29.2208 27.9208 29.5793 27.7957 29.9519 27.763C30.3245 27.7303 30.6993 27.7909 31.0425 27.9394L39.8963 31.9069C40.3395 32.0998 40.7088 32.4302 40.9496 32.8493C41.1904 33.2683 41.2898 33.7538 41.2331 34.2338H41.2388ZM39.2981 33.2738L30.4406 29.3063C30.333 29.2611 30.2162 29.2422 30.0999 29.251C29.9835 29.2598 29.8709 29.2961 29.7713 29.3569L25.125 33.3169L25.0556 33.3694C24.7326 33.5851 24.3592 33.7135 23.9718 33.7421C23.5844 33.7707 23.1962 33.6985 22.845 33.5326C19.47 31.9032 16.1119 28.5676 14.4825 25.2319C14.3149 24.8834 14.24 24.4976 14.265 24.1117C14.2899 23.7258 14.4139 23.3528 14.625 23.0288C14.6419 23.0026 14.6606 22.9801 14.6794 22.9557L18.6525 18.2307C18.7121 18.1294 18.747 18.0156 18.7545 17.8983C18.762 17.7811 18.7418 17.6637 18.6956 17.5557L14.7319 8.71694C14.676 8.57992 14.5809 8.46248 14.4585 8.3794C14.336 8.29632 14.1917 8.25132 14.0438 8.25006C14.0138 8.2482 13.9837 8.2482 13.9538 8.25006C11.9555 8.51483 10.1221 9.49834 8.79626 11.0167C7.47045 12.5351 6.74304 14.4843 6.75002 16.5001C6.75002 30.1463 17.8538 41.2501 31.5 41.2501C33.5157 41.257 35.465 40.5296 36.9834 39.2038C38.5017 37.878 39.4852 36.0446 39.75 34.0463C39.7673 33.8854 39.7321 33.7233 39.6496 33.584C39.5672 33.4448 39.4419 33.336 39.2925 33.2738H39.2981Z" fill="url(#paint0_linear_241_1583)"/>
<defs>
<linearGradient id="paint0_linear_241_1583" x1="5.25" y1="24.7503" x2="34.3975" y2="24.7503" gradientUnits="userSpaceOnUse">
<stop stop-color="#2D64F4"/>
<stop offset="1" stop-color="#AE60AE"/>
</linearGradient>
</defs>
</svg>
