<svg width="48" height="40" viewBox="0 0 48 40" fill="none" xmlns="http://www.w3.org/2000/svg">
<path d="M0 8C0 3.58172 3.58172 0 8 0H40C44.4183 0 48 3.58172 48 8V32C48 36.4183 44.4183 40 40 40H8C3.58172 40 0 36.4183 0 32V8Z" fill="white"/>
<path d="M0.5 8C0.5 3.85786 3.85786 0.5 8 0.5H40C44.1421 0.5 47.5 3.85786 47.5 8V32C47.5 36.1421 44.1421 39.5 40 39.5H8C3.85787 39.5 0.5 36.1421 0.5 32V8Z" stroke="#A4A29F" stroke-opacity="0.5"/>
<path d="M27.667 23.667L30.667 26.667" stroke="#1D1D1F" stroke-width="1.625" stroke-linecap="round" stroke-linejoin="round"/>
<path d="M29.333 19.333C29.333 16.0193 26.6467 13.333 23.333 13.333C20.0193 13.333 17.333 16.0193 17.333 19.333C17.333 22.6467 20.0193 25.333 23.333 25.333C26.6467 25.333 29.333 22.6467 29.333 19.333Z" stroke="#1D1D1F" stroke-width="1.625" stroke-linejoin="round"/>
</svg>
