<svg width="48" height="48" viewBox="0 0 48 48" fill="none" xmlns="http://www.w3.org/2000/svg">
<path d="M33.7499 24C33.7609 29.963 32.5995 35.87 30.3318 41.385C30.2493 41.5573 30.1043 41.6916 29.9262 41.7606C29.7482 41.8295 29.5505 41.828 29.3735 41.7562C29.1965 41.6845 29.0536 41.548 28.9738 41.3744C28.8941 41.2009 28.8835 41.0035 28.9443 40.8225C31.1381 35.4859 32.2613 29.77 32.2499 24C32.2499 23.8011 32.3289 23.6103 32.4696 23.4697C32.6102 23.329 32.801 23.25 32.9999 23.25C33.1988 23.25 33.3896 23.329 33.5302 23.4697C33.6709 23.6103 33.7499 23.8011 33.7499 24ZM30.148 18.5006C30.2806 18.6498 30.4669 18.7402 30.6661 18.752C30.8653 18.7638 31.061 18.696 31.2102 18.5634C31.3594 18.4309 31.4498 18.2446 31.4616 18.0454C31.4734 17.8462 31.4056 17.6504 31.273 17.5013C29.9572 16.0274 28.2245 14.988 26.3047 14.521C24.3849 14.0539 22.3684 14.1812 20.5225 14.8858C18.6766 15.5905 17.0884 16.8394 15.9682 18.467C14.8481 20.0946 14.2488 22.0242 14.2499 24C14.2518 28.4467 13.124 32.821 10.9724 36.7125C10.8759 36.8866 10.8526 37.0918 10.9074 37.2831C10.9623 37.4744 11.0909 37.636 11.2649 37.7325C11.439 37.829 11.6442 37.8524 11.8355 37.7975C12.0268 37.7427 12.1884 37.6141 12.2849 37.44C14.5587 33.3254 15.7509 28.7011 15.7499 24C15.7499 22.3293 16.2571 20.698 17.2045 19.3218C18.1518 17.9457 19.4947 16.8896 21.0554 16.2933C22.616 15.697 24.3209 15.5886 25.9446 15.9824C27.5682 16.3762 29.034 17.2537 30.148 18.4988V18.5006ZM23.9999 5.25001C21.8713 5.24796 19.7579 5.60875 17.7505 6.31688C17.6546 6.34714 17.5657 6.3964 17.4891 6.46172C17.4126 6.52705 17.35 6.6071 17.3051 6.69712C17.2601 6.78715 17.2337 6.88529 17.2275 6.98572C17.2213 7.08615 17.2353 7.1868 17.2688 7.28169C17.3023 7.37658 17.3545 7.46376 17.4224 7.53805C17.4902 7.61233 17.5723 7.6722 17.6638 7.71409C17.7553 7.75598 17.8543 7.77903 17.9549 7.78188C18.0555 7.78472 18.1556 7.76729 18.2493 7.73063C20.8516 6.81404 23.6358 6.53449 26.3684 6.91538C29.101 7.29628 31.7026 8.32654 33.9551 9.91984C36.2076 11.5131 38.0455 13.6231 39.3147 16.0729C40.5839 18.5227 41.2475 21.241 41.2499 24C41.2536 27.9815 40.8134 31.951 39.9374 35.835C39.8936 36.0284 39.9283 36.2313 40.0337 36.3992C40.1391 36.5672 40.3067 36.6866 40.4999 36.7313C40.5546 36.744 40.6106 36.7503 40.6668 36.75C40.8366 36.7495 41.0013 36.6913 41.1338 36.5851C41.2663 36.4788 41.3588 36.3307 41.3962 36.165C42.2991 32.1731 42.7532 28.0928 42.7499 24C42.7445 19.0289 40.7673 14.2629 37.2521 10.7478C33.737 7.23266 28.971 5.25547 23.9999 5.25001ZM12.5005 11.1431C12.6497 11.0104 12.7401 10.8238 12.7517 10.6244C12.7633 10.425 12.6952 10.2292 12.5624 10.08C12.4296 9.93082 12.243 9.84049 12.0437 9.82889C11.8443 9.81729 11.6485 9.88536 11.4993 10.0181C9.53387 11.7789 7.96153 13.9341 6.88475 16.3432C5.80798 18.7523 5.25093 21.3612 5.24991 24C5.25553 26.4806 4.72197 28.9329 3.68616 31.1869C3.64539 31.2767 3.62275 31.3737 3.61954 31.4724C3.61633 31.571 3.6326 31.6693 3.66744 31.7616C3.70228 31.8539 3.75498 31.9384 3.82255 32.0103C3.89011 32.0822 3.9712 32.1401 4.06116 32.1806C4.1586 32.2262 4.26484 32.2499 4.37241 32.25C4.51607 32.2502 4.65675 32.2091 4.77774 32.1317C4.89873 32.0542 4.99494 31.9437 5.05491 31.8131C6.17986 29.3625 6.75823 26.6965 6.74991 24C6.75195 21.5733 7.26508 19.1743 8.25589 16.9591C9.2467 14.7439 10.693 12.7622 12.5005 11.1431ZM21.0468 38.3194C20.9568 38.2783 20.8597 38.2555 20.7608 38.2521C20.662 38.2487 20.5635 38.2649 20.471 38.2998C20.3784 38.3346 20.2937 38.3874 20.2217 38.4552C20.1496 38.5229 20.0917 38.6042 20.0512 38.6944C19.6762 39.4988 19.2768 40.3013 18.8474 41.0775C18.7996 41.1637 18.7693 41.2584 18.7582 41.3563C18.747 41.4542 18.7553 41.5534 18.7824 41.6481C18.8096 41.7428 18.8551 41.8312 18.9165 41.9084C18.9778 41.9855 19.0537 42.0497 19.1399 42.0975C19.2261 42.1453 19.3208 42.1756 19.4187 42.1868C19.5166 42.1979 19.6158 42.1897 19.7105 42.1625C19.8052 42.1353 19.8936 42.0898 19.9708 42.0285C20.0479 41.9671 20.1121 41.8912 20.1599 41.805C20.608 40.995 21.0318 40.1588 21.4162 39.3206C21.4583 39.2307 21.4821 39.1334 21.4863 39.0342C21.4905 38.935 21.475 38.836 21.4407 38.7428C21.4063 38.6497 21.3538 38.5643 21.2862 38.4916C21.2186 38.4189 21.1372 38.3604 21.0468 38.3194ZM23.9999 23.25C23.801 23.25 23.6102 23.329 23.4696 23.4697C23.3289 23.6103 23.2499 23.8011 23.2499 24C23.2516 26.9725 22.8787 29.9333 22.1399 32.8125C22.0903 33.0049 22.1192 33.2092 22.2201 33.3804C22.3209 33.5516 22.4857 33.6758 22.678 33.7256C22.7392 33.7419 22.8022 33.7501 22.8655 33.75C23.0317 33.7499 23.1931 33.6946 23.3245 33.5928C23.4558 33.491 23.5496 33.3484 23.5912 33.1875C24.362 30.1859 24.7514 27.099 24.7499 24C24.7499 23.8011 24.6709 23.6103 24.5302 23.4697C24.3896 23.329 24.1988 23.25 23.9999 23.25Z" fill="url(#paint0_linear_129_18)"/>
<defs>
<linearGradient id="paint0_linear_129_18" x1="3.61914" y1="23.7208" x2="35.3026" y2="23.7208" gradientUnits="userSpaceOnUse">
<stop stop-color="#2D64F4"/>
<stop offset="1" stop-color="#AE60AE"/>
</linearGradient>
</defs>
</svg>
