<svg width="48" height="48" viewBox="0 0 48 48" fill="none" xmlns="http://www.w3.org/2000/svg">
<path d="M26.25 9V39C26.25 39.5967 26.4871 40.169 26.909 40.591C27.331 41.0129 27.9033 41.25 28.5 41.25H37.5C38.0967 41.25 38.669 41.0129 39.091 40.591C39.5129 40.169 39.75 39.5967 39.75 39V9C39.75 8.40326 39.5129 7.83097 39.091 7.40901C38.669 6.98705 38.0967 6.75 37.5 6.75H28.5C27.9033 6.75 27.331 6.98705 26.909 7.40901C26.4871 7.83097 26.25 8.40326 26.25 9ZM37.5 8.25C37.6989 8.25 37.8897 8.32902 38.0303 8.46967C38.171 8.61032 38.25 8.80109 38.25 9V39C38.25 39.1989 38.171 39.3897 38.0303 39.5303C37.8897 39.671 37.6989 39.75 37.5 39.75H28.5C28.3011 39.75 28.1103 39.671 27.9697 39.5303C27.829 39.3897 27.75 39.1989 27.75 39V9C27.75 8.80109 27.829 8.61032 27.9697 8.46967C28.1103 8.32902 28.3011 8.25 28.5 8.25H37.5ZM8.25 9V39C8.25 39.5967 8.48705 40.169 8.90901 40.591C9.33097 41.0129 9.90326 41.25 10.5 41.25H19.5C20.0967 41.25 20.669 41.0129 21.091 40.591C21.5129 40.169 21.75 39.5967 21.75 39V9C21.75 8.40326 21.5129 7.83097 21.091 7.40901C20.669 6.98705 20.0967 6.75 19.5 6.75H10.5C9.90326 6.75 9.33097 6.98705 8.90901 7.40901C8.48705 7.83097 8.25 8.40326 8.25 9ZM19.5 8.25C19.6989 8.25 19.8897 8.32902 20.0303 8.46967C20.171 8.61032 20.25 8.80109 20.25 9V39C20.25 39.1989 20.171 39.3897 20.0303 39.5303C19.8897 39.671 19.6989 39.75 19.5 39.75H10.5C10.3011 39.75 10.1103 39.671 9.96967 39.5303C9.82902 39.3897 9.75 39.1989 9.75 39V9C9.75 8.80109 9.82902 8.61032 9.96967 8.46967C10.1103 8.32902 10.3011 8.25 10.5 8.25H19.5ZM33 12.75C33.2967 12.75 33.5867 12.838 33.8334 13.0028C34.08 13.1676 34.2723 13.4019 34.3858 13.676C34.4994 13.9501 34.5291 14.2517 34.4712 14.5426C34.4133 14.8336 34.2704 15.1009 34.0607 15.3107C33.8509 15.5204 33.5836 15.6633 33.2926 15.7212C33.0017 15.7791 32.7001 15.7494 32.426 15.6358C32.1519 15.5223 31.9176 15.33 31.7528 15.0834C31.588 14.8367 31.5 14.5467 31.5 14.25C31.5 13.8522 31.658 13.4706 31.9393 13.1893C32.2206 12.908 32.6022 12.75 33 12.75ZM15 12.75C15.2967 12.75 15.5867 12.838 15.8334 13.0028C16.08 13.1676 16.2723 13.4019 16.3858 13.676C16.4994 13.9501 16.5291 14.2517 16.4712 14.5426C16.4133 14.8336 16.2704 15.1009 16.0607 15.3107C15.8509 15.5204 15.5836 15.6633 15.2926 15.7212C15.0017 15.7791 14.7001 15.7494 14.426 15.6358C14.1519 15.5223 13.9176 15.33 13.7528 15.0834C13.588 14.8367 13.5 14.5467 13.5 14.25C13.5 13.8522 13.658 13.4706 13.9393 13.1893C14.2206 12.908 14.6022 12.75 15 12.75Z" fill="url(#paint0_linear_129_27)"/>
<defs>
<linearGradient id="paint0_linear_129_27" x1="24" y1="41.25" x2="24" y2="13.316" gradientUnits="userSpaceOnUse">
<stop stop-color="#2D64F4"/>
<stop offset="1" stop-color="#AE60AE"/>
</linearGradient>
</defs>
</svg>
