<svg width="19" height="14" viewBox="0 0 19 14" fill="none" xmlns="http://www.w3.org/2000/svg">
<path d="M18.3976 1.14714L6.39763 13.1471C6.29216 13.2525 6.14919 13.3116 6.00013 13.3116C5.85107 13.3116 5.7081 13.2525 5.60263 13.1471L0.352629 7.89714C0.253269 7.79051 0.199177 7.64948 0.201748 7.50375C0.204319 7.35802 0.263353 7.21899 0.366413 7.11593C0.469472 7.01287 0.608511 6.95383 0.754237 6.95126C0.899963 6.94869 1.041 7.00278 1.14763 7.10214L6.00013 11.9537L17.6026 0.352141C17.7093 0.252781 17.8503 0.198688 17.996 0.20126C18.1417 0.203831 18.2808 0.262865 18.3838 0.365925C18.4869 0.468985 18.5459 0.608024 18.5485 0.753749C18.5511 0.899475 18.497 1.04051 18.3976 1.14714Z" fill="#1D1D1F"/>
</svg>
