<svg width="24" height="24" viewBox="0 0 24 24" fill="none" xmlns="http://www.w3.org/2000/svg">
<path d="M22.9238 9.37969L17.6738 3.37969C17.6209 3.31928 17.5558 3.27088 17.4827 3.23773C17.4096 3.20458 17.3303 3.18745 17.25 3.1875H6.75002C6.67012 3.18687 6.59101 3.20326 6.51794 3.23559C6.44487 3.26792 6.37953 3.31545 6.32627 3.375L1.07627 9.375C0.985688 9.47962 0.936852 9.61396 0.9391 9.75233C0.941349 9.8907 0.994524 10.0234 1.08846 10.125L11.5885 21.375C11.6411 21.4315 11.7048 21.4766 11.7756 21.5074C11.8464 21.5382 11.9228 21.5541 12 21.5541C12.0772 21.5541 12.1536 21.5382 12.2244 21.5074C12.2952 21.4766 12.3589 21.4315 12.4116 21.375L22.9116 10.125C23.0042 10.0237 23.0566 9.89194 23.0589 9.75465C23.0611 9.61737 23.0131 9.484 22.9238 9.37969ZM7.11939 10.3125L10.3631 18.4209L2.79471 10.3125H7.11939ZM15.6694 10.3125L12 19.485L8.33064 10.3125H15.6694ZM8.62502 9.1875L12 4.6875L15.375 9.1875H8.62502ZM16.8806 10.3125H21.2053L13.6369 18.4209L16.8806 10.3125ZM21.2606 9.1875H16.7813L13.125 4.3125H16.995L21.2606 9.1875ZM7.00502 4.3125H10.875L7.21877 9.1875H2.73939L7.00502 4.3125Z" fill="black" fill-opacity="0.4"/>
</svg>
