<svg width="24" height="24" viewBox="0 0 24 24" fill="none" xmlns="http://www.w3.org/2000/svg">
<path d="M17.0625 12C17.0679 15.0059 16.4825 17.9836 15.3394 20.7637C15.297 20.8669 15.2249 20.9551 15.1322 21.0172C15.0396 21.0793 14.9306 21.1125 14.819 21.1125C14.7458 21.1122 14.6732 21.0979 14.6053 21.0703C14.5369 21.0422 14.4746 21.001 14.4222 20.9488C14.3697 20.8967 14.328 20.8347 14.2996 20.7664C14.2711 20.6981 14.2564 20.6249 14.2562 20.5509C14.2561 20.477 14.2705 20.4037 14.2987 20.3353C15.386 17.6911 15.9428 14.859 15.9375 12C15.9375 11.8508 15.9967 11.7077 16.1022 11.6022C16.2077 11.4968 16.3508 11.4375 16.5 11.4375C16.6492 11.4375 16.7922 11.4968 16.8977 11.6022C17.0032 11.7077 17.0625 11.8508 17.0625 12ZM12 8.06249C12.554 8.0629 13.1017 8.17998 13.6074 8.40612C14.1132 8.63226 14.5656 8.96238 14.9353 9.37499C14.984 9.43199 15.0436 9.47868 15.1106 9.51232C15.1775 9.54596 15.2506 9.56587 15.3254 9.57089C15.4002 9.5759 15.4752 9.56592 15.5461 9.54152C15.617 9.51713 15.6822 9.47881 15.7381 9.42882C15.794 9.37884 15.8393 9.31819 15.8714 9.25045C15.9034 9.1827 15.9217 9.10923 15.925 9.03434C15.9283 8.95946 15.9165 8.88467 15.8905 8.81437C15.8645 8.74407 15.8247 8.67969 15.7734 8.62499C15.0899 7.86077 14.1905 7.32209 13.1941 7.08025C12.1977 6.83842 11.1514 6.90481 10.1936 7.27066C9.23578 7.63651 8.41163 8.28456 7.8302 9.12906C7.24877 9.97356 6.93747 10.9747 6.93749 12C6.93819 14.1911 6.38273 16.3465 5.32311 18.2644C5.2851 18.3291 5.26042 18.4007 5.25052 18.4751C5.24062 18.5495 5.2457 18.6251 5.26547 18.6975C5.28523 18.7699 5.31928 18.8376 5.3656 18.8966C5.41193 18.9556 5.46959 19.0048 5.53521 19.0412C5.60082 19.0776 5.67306 19.1005 5.74766 19.1085C5.82226 19.1166 5.89772 19.1097 5.96959 19.0881C6.04147 19.0666 6.10831 19.0309 6.16618 18.9831C6.22405 18.9353 6.27177 18.8765 6.30655 18.81C7.45893 16.7252 8.06312 14.382 8.06249 12C8.06249 10.9557 8.47733 9.95418 9.21575 9.21576C9.95418 8.47734 10.9557 8.06249 12 8.06249ZM12 2.43749C10.9142 2.43602 9.83617 2.62023 8.81249 2.98218C8.74118 3.00548 8.67526 3.0428 8.6186 3.09195C8.56194 3.1411 8.51568 3.20109 8.48254 3.26839C8.44941 3.33569 8.43007 3.40893 8.42566 3.48381C8.42125 3.55869 8.43186 3.6337 8.45687 3.70442C8.48189 3.77514 8.52079 3.84014 8.57129 3.8956C8.6218 3.95106 8.68289 3.99586 8.75097 4.02736C8.81904 4.05886 8.89273 4.07643 8.9677 4.07903C9.04266 4.08163 9.11739 4.0692 9.18749 4.04249C10.4603 3.59405 11.8221 3.45721 13.1587 3.64345C14.4954 3.82969 15.7679 4.33359 16.8696 5.11291C17.9714 5.89223 18.8704 6.92427 19.4911 8.12256C20.1119 9.32084 20.4364 10.6505 20.4375 12C20.438 13.9767 20.2179 15.9474 19.7812 17.8753C19.7636 17.9478 19.7605 18.0231 19.7722 18.0967C19.7839 18.1704 19.8102 18.241 19.8494 18.3045C19.8887 18.3679 19.9402 18.4229 20.0009 18.4662C20.0616 18.5096 20.1303 18.5404 20.203 18.557C20.2758 18.5735 20.3511 18.5754 20.4246 18.5626C20.4981 18.5497 20.5683 18.5224 20.6311 18.4822C20.6939 18.4419 20.7481 18.3896 20.7905 18.3282C20.8329 18.2669 20.8627 18.1977 20.8781 18.1247C21.3334 16.1149 21.5629 14.0607 21.5625 12C21.5595 9.46477 20.5511 7.03425 18.7584 5.24157C16.9657 3.4489 14.5352 2.44047 12 2.43749ZM6.37499 5.71124C6.47664 5.60947 6.53544 5.47263 6.5393 5.32884C6.54317 5.18505 6.4918 5.04524 6.39576 4.93816C6.29973 4.83108 6.16631 4.76486 6.02295 4.75311C5.87959 4.74136 5.73718 4.78498 5.62499 4.87499C4.62336 5.77237 3.82189 6.87058 3.27271 8.09815C2.72353 9.32573 2.43895 10.6552 2.43749 12C2.44052 13.2134 2.17982 14.4129 1.67342 15.5156C1.63943 15.5831 1.6194 15.6568 1.61452 15.7322C1.60963 15.8077 1.62001 15.8833 1.64501 15.9546C1.67002 16.026 1.70914 16.0915 1.76005 16.1474C1.81096 16.2033 1.87261 16.2483 1.94131 16.2798C2.01002 16.3114 2.08437 16.3287 2.15993 16.3308C2.23549 16.333 2.3107 16.3199 2.38108 16.2923C2.45146 16.2647 2.51555 16.2232 2.56954 16.1703C2.62353 16.1174 2.6663 16.0542 2.6953 15.9844C3.26996 14.7349 3.56586 13.3753 3.56249 12C3.5634 10.813 3.81431 9.63958 4.2989 8.55605C4.78349 7.47252 5.49087 6.50321 6.37499 5.71124ZM10.6012 18.99C10.5339 18.9585 10.461 18.9407 10.3867 18.9376C10.3124 18.9345 10.2383 18.9462 10.1686 18.9719C10.0988 18.9976 10.0349 19.0369 9.9804 19.0875C9.92594 19.138 9.88204 19.1989 9.85124 19.2666C9.66374 19.6641 9.4678 20.0606 9.25499 20.445C9.18286 20.5754 9.16546 20.7292 9.20659 20.8724C9.24772 21.0157 9.34403 21.1367 9.47436 21.2091C9.55731 21.2559 9.65098 21.2804 9.74624 21.2803C9.84667 21.2804 9.94528 21.2535 10.0318 21.2026C10.1184 21.1516 10.1897 21.0784 10.2384 20.9906C10.4653 20.5819 10.679 20.1591 10.874 19.7353C10.9364 19.6002 10.9426 19.446 10.8915 19.3063C10.8404 19.1667 10.736 19.0529 10.6012 18.99ZM12 11.4375C11.8508 11.4375 11.7077 11.4968 11.6022 11.6022C11.4967 11.7077 11.4375 11.8508 11.4375 12C11.4384 13.4704 11.2538 14.9351 10.8881 16.3594C10.8697 16.431 10.8655 16.5055 10.8759 16.5787C10.8862 16.6519 10.9109 16.7223 10.9485 16.786C10.9862 16.8496 11.0359 16.9052 11.0951 16.9496C11.1542 16.994 11.2215 17.0263 11.2931 17.0447C11.339 17.0566 11.3863 17.0626 11.4337 17.0625C11.5583 17.0623 11.6793 17.0208 11.7777 16.9444C11.8761 16.8681 11.9463 16.7612 11.9775 16.6406C12.3666 15.1245 12.5632 13.5653 12.5625 12C12.5625 11.8508 12.5032 11.7077 12.3977 11.6022C12.2922 11.4968 12.1492 11.4375 12 11.4375Z" fill="black" fill-opacity="0.4"/>
</svg>
