<svg width="48" height="48" viewBox="0 0 48 48" fill="none" xmlns="http://www.w3.org/2000/svg">
<path d="M39.75 18.7502C38.9857 18.7474 38.2336 18.9411 37.5657 19.3127L31.1063 11.2502C31.621 10.6739 31.9786 9.97471 32.1446 9.22006C32.3107 8.46541 32.2797 7.6807 32.0545 6.94153C31.8293 6.20236 31.4176 5.53363 30.8589 4.99975C30.3003 4.46586 29.6137 4.08482 28.865 3.89332C28.1164 3.70181 27.3311 3.7063 26.5848 3.90635C25.8384 4.1064 25.1561 4.49527 24.6037 5.03551C24.0512 5.57574 23.6471 6.24914 23.4304 6.99084C23.2137 7.73253 23.1916 8.51754 23.3663 9.27025L13.5544 13.3521C13.1504 12.7095 12.5904 12.1796 11.9265 11.8116C11.2626 11.4436 10.5164 11.2495 9.75734 11.2474C8.99828 11.2453 8.25103 11.4352 7.58511 11.7996C6.91919 12.1639 6.35624 12.6907 5.94865 13.331C5.54106 13.9714 5.30208 14.7044 5.25393 15.462C5.20579 16.2195 5.35005 16.9769 5.67329 17.6637C5.99653 18.3505 6.48825 18.9444 7.1027 19.39C7.71714 19.8357 8.43433 20.1187 9.18755 20.2127L9.58318 30.0959C8.83229 30.2516 8.13366 30.5967 7.55361 31.0984C6.97357 31.6 6.53134 32.2416 6.26891 32.9621C6.00648 33.6827 5.93255 34.4584 6.05415 35.2156C6.17574 35.9727 6.48882 36.6863 6.96367 37.2885C7.43851 37.8906 8.05938 38.3615 8.76732 38.6563C9.47527 38.9511 10.2468 39.0601 11.0087 38.9729C11.7706 38.8857 12.4976 38.6053 13.1207 38.1582C13.7438 37.7111 14.2422 37.1122 14.5688 36.4184L24.7744 39.2759C24.7594 39.4315 24.75 39.5909 24.75 39.7502C24.7496 40.5003 24.9365 41.2385 25.294 41.8978C25.6514 42.5572 26.168 43.1167 26.7967 43.5256C27.4255 43.9345 28.1465 44.1798 28.8941 44.2391C29.6418 44.2984 30.3924 44.1699 31.0778 43.8653C31.7631 43.5607 32.3615 43.0896 32.8184 42.4949C33.2754 41.9001 33.5764 41.2006 33.6942 40.4599C33.812 39.7192 33.7428 38.9608 33.4929 38.2537C33.2429 37.5465 32.8202 36.9131 32.2632 36.4109L38.0007 27.3959C38.554 27.6307 39.149 27.7512 39.75 27.7502C40.9435 27.7502 42.0881 27.2761 42.932 26.4322C43.7759 25.5883 44.25 24.4437 44.25 23.2502C44.25 22.0568 43.7759 20.9122 42.932 20.0683C42.0881 19.2244 40.9435 18.7502 39.75 18.7502ZM35.2838 22.7121L24.96 23.2034L27.4519 12.739C27.5507 12.7465 27.65 12.7502 27.75 12.7502C28.5144 12.7531 29.2665 12.5594 29.9344 12.1877L36.3938 20.2502C35.7796 20.9373 35.392 21.7969 35.2838 22.7121ZM13.5338 31.1852C12.8501 30.5562 11.9879 30.1552 11.0663 30.0377L10.6707 20.1546C11.6643 19.9435 12.5575 19.4031 13.2057 18.6209L22.6557 24.0921L13.5338 31.1852ZM27.75 5.25025C28.3434 5.25025 28.9234 5.42619 29.4168 5.75584C29.9101 6.08548 30.2946 6.55402 30.5217 7.1022C30.7488 7.65037 30.8082 8.25357 30.6924 8.83552C30.5766 9.41746 30.2909 9.95201 29.8714 10.3716C29.4518 10.7911 28.9173 11.0768 28.3353 11.1926C27.7534 11.3084 27.1502 11.2489 26.602 11.0219C26.0538 10.7948 25.5853 10.4103 25.2556 9.91696C24.926 9.42361 24.75 8.84359 24.75 8.25025C24.75 7.4546 25.0661 6.69153 25.6287 6.12893C26.1913 5.56632 26.9544 5.25025 27.75 5.25025ZM23.9457 10.6484C24.4345 11.4247 25.1489 12.0332 25.9932 12.3921L23.5032 22.8471L13.9651 17.3234C14.1539 16.8204 14.2504 16.2875 14.25 15.7502C14.2497 15.4088 14.2107 15.0685 14.1338 14.7359L23.9457 10.6484ZM6.75005 15.7502C6.75005 15.1569 6.926 14.5769 7.25564 14.0835C7.58529 13.5902 8.05382 13.2057 8.602 12.9786C9.15018 12.7515 9.75338 12.6921 10.3353 12.8079C10.9173 12.9236 11.4518 13.2094 11.8714 13.6289C12.2909 14.0485 12.5767 14.583 12.6924 15.165C12.8082 15.7469 12.7488 16.3501 12.5217 16.8983C12.2946 17.4465 11.9101 17.915 11.4168 18.2447C10.9234 18.5743 10.3434 18.7502 9.75005 18.7502C8.9544 18.7502 8.19134 18.4342 7.62873 17.8716C7.06612 17.309 6.75005 16.5459 6.75005 15.7502ZM10.5001 37.5002C9.90671 37.5002 9.32669 37.3243 8.83334 36.9947C8.33999 36.665 7.95547 36.1965 7.72841 35.6483C7.50135 35.1001 7.44194 34.4969 7.55769 33.915C7.67345 33.333 7.95917 32.7985 8.37873 32.3789C8.79829 31.9594 9.33284 31.6736 9.91478 31.5579C10.4967 31.4421 11.0999 31.5015 11.6481 31.7286C12.1963 31.9557 12.6648 32.3402 12.9945 32.8335C13.3241 33.3269 13.5 33.9069 13.5 34.5002C13.5 35.2959 13.184 36.059 12.6214 36.6216C12.0588 37.1842 11.2957 37.5002 10.5001 37.5002ZM14.9757 34.9746C14.9907 34.819 15 34.6596 15 34.5002C15.0008 33.7559 14.8159 33.0232 14.4619 32.3684L23.6232 25.2434L27.135 35.779C26.2796 36.2393 25.5947 36.9624 25.1813 37.8415L14.9757 34.9746ZM29.25 42.7502C28.6567 42.7502 28.0767 42.5743 27.5833 42.2447C27.09 41.915 26.7055 41.4465 26.4784 40.8983C26.2513 40.3501 26.1919 39.7469 26.3077 39.165C26.4235 38.583 26.7092 38.0485 27.1287 37.6289C27.5483 37.2094 28.0828 36.9236 28.6648 36.8079C29.2467 36.6921 29.8499 36.7515 30.3981 36.9786C30.9463 37.2057 31.4148 37.5902 31.7445 38.0835C32.0741 38.5769 32.25 39.1569 32.25 39.7502C32.25 40.5459 31.934 41.309 31.3714 41.8716C30.8088 42.4342 30.0457 42.7502 29.25 42.7502ZM30.9994 35.6046C30.4461 35.3698 29.8511 35.2493 29.25 35.2502C29.0184 35.2506 28.7872 35.2681 28.5582 35.3027L25.0238 24.7015L35.355 24.2102C35.555 25.1286 36.0384 25.9609 36.7369 26.5896L30.9994 35.6046ZM39.75 26.2502C39.1567 26.2502 38.5767 26.0743 38.0833 25.7447C37.59 25.415 37.2055 24.9465 36.9784 24.3983C36.7513 23.8501 36.6919 23.2469 36.8077 22.665C36.9234 22.083 37.2092 21.5485 37.6287 21.1289C38.0483 20.7094 38.5828 20.4236 39.1648 20.3079C39.7467 20.1921 40.3499 20.2515 40.8981 20.4786C41.4463 20.7057 41.9148 21.0902 42.2445 21.5835C42.5741 22.0769 42.75 22.6569 42.75 23.2502C42.75 24.0459 42.434 24.809 41.8714 25.3716C41.3088 25.9342 40.5457 26.2502 39.75 26.2502Z" fill="url(#paint0_linear_129_44)"/>
<defs>
<linearGradient id="paint0_linear_129_44" x1="5.24487" y1="24.0031" x2="36.8267" y2="24.0031" gradientUnits="userSpaceOnUse">
<stop stop-color="#fff"/>
<stop offset="1" stop-color="#fff"/>
</linearGradient>
</defs>
</svg>
