<svg width="32" height="32" viewBox="0 0 32 32" fill="none" xmlns="http://www.w3.org/2000/svg">
<path d="M21.3333 20.88C21.3333 18.48 18.9467 16.5334 16 16.5334C13.0533 16.5334 10.6667 18.48 10.6667 20.88M24 25.1467H22.9867C21.92 25.1467 20.9067 25.56 20.16 26.3067L17.88 28.56C16.84 29.5867 15.1467 29.5867 14.1067 28.56L11.8267 26.3067C11.08 25.56 10.0533 25.1467 9 25.1467H8C5.78667 25.1467 4 23.3734 4 21.1867V6.64001C4 4.45335 5.78667 2.68005 8 2.68005H24C26.2133 2.68005 28 4.45335 28 6.64001V21.1867C28 23.3601 26.2133 25.1467 24 25.1467ZM19.1067 10.2267C19.1067 11.9424 17.7158 13.3334 16 13.3334C14.2842 13.3334 12.8933 11.9424 12.8933 10.2267C12.8933 8.51092 14.2842 7.12008 16 7.12008C17.7158 7.12008 19.1067 8.51092 19.1067 10.2267Z" stroke="#292D32" stroke-width="1.5" stroke-linecap="round" stroke-linejoin="round"/>
</svg>
